/* XPM */
static char *Boats[] = {
/* columns rows colors chars-per-pixel */
"128 64 8 1 ",
"  c #3F2832",
". c #743F39",
"X c #B86F50",
"o c #C28569",
"O c #124E89",
"+ c #C0CBDC",
"@ c white",
"# c None",
/* pixels */
"#############################################################################@@@################################@@@#############",
"##############################################################################@@################################@@##############",
"##############################################################################.@@##############################@@.##############",
"#############################################################################o.@@##############################@@.o#############",
"#############################################################################o.@@##############################@@.o#############",
"#############################################################################oo@@##############################@@oo#############",
"##############################################################################.@@##############################@@.##############",
"##############################################################################@@@##############################@@@##############",
"##############################################################################@@################################@@##############",
"#################################################################XXXXXXXX####@@@################################@@@####XXXXXXXX#",
"################################################################X##X##X##X###@@##################################@@###X##X##X##X",
"################################################################XXX.XX.XX.X##@.##################################.@##X.XX.XX.XXX",
"###XXXXXXXXXXXXXXXXXXXXXX##############XXXXXXXXXXXXXXXXXXXXXX###X........oX###.##################################.###Xo........X",
"###X.....  .......  .....XXX########XXX.....  .......  .....X###XooooooooooXXX.XXXXXXXXX################XXXXXXXXX.XXXooooooooooX",
"###X....... ........ .......XX####XX....... ........ .......X###Xoooooooooo##X.#X##X##XXXXXXX######XXXXXXX##X##X#.X##ooooooooooX",
"###X.XXX.XX .XXXX.XX .XXX.....X##X.....XXX. XX.XXXX. XX.XXX.X###XXXXXXXXXXo.o..o.oo.oo.X##X##XX##XX##X##X.oo.oo.o..o.oXXXXXXXXXX",
"###X.XXX.XX .XXXX.XX .XXXXXXXX####XXXXXXXX. XX.XXXX. XX.XXX.X###Xoo.oo.oooXo............oo.ooXX##XXoo.oo............oXooo.oo.ooX",
"###X.XXX.XX .XXXX.XX .XXXXXX.######.XXXXXX. XX.XXXX. XX.XXX.X###XXXXXXXX.ooXXXXXXXXXXXXXXXXXXX####XXXXXXXXXXXXXXXXXXXoo.XXXXXXXX",
"###X.XXX.XX .XXXX.XX ..XXX..########..XXX.. XX.XXXX. XX.XXX.X###XX.......XXXoXooXooXooXXooXooX####XooXooXXooXooXooXoXXX.......XX",
"###XXXXXXXXXXXXXXXXXXXXX..OO########OO..XXXXXXXXXXXXXXXXXXXXX###XX.........XXXXXXXXXXXXXXXXXX######XXXXXXXXXXXXXXXXXX.........XX",
"####.....................OO##########OO.....................####XX.........................X########X.........................XX",
"####O..................OOO############OOO..................O####XX.........................X########X.........................XX",
"####OOOOOOOOOOOOOOOOOOOOO##############OOOOOOOOOOOOOOOOOOOOO#####X.......................XX##########XX.......................X#",
"#####OOOOOOOOOOOOOOOOOO##################OOOOOOOOOOOOOOOOOO#######.......................O############O.......................##",
"##################################################################O.....................O##############O.....................O##",
"###################################################################O..................OOO##############OOO..................O###",
"####################################################################OOOOOOOOOOOOOOOOOOOO################OOOOOOOOOOOOOOOOOOOO####",
"##########################################################################OOOOOOOO############################OOOOOOOO##########",
"#####################################################################OOO############OOOO################OOOO############OOO#####",
"################################################################################################################################",
"################################################################################################################################",
"################################################################################################################################",
"###############################################################################oo##############################o.###############",
"############################################################################@@@o.@@@########################@@@@@@@@############",
"###########################################################################@@++o.++@@######################@@@@@@@@@@###########",
"###############XX#########################################################@@+++o.+++@@#####################@@@@@@@@@@###########",
"###############XX###########################XXXXXXXX######################@@+++o.+++@@####################@@@@@@@@@@@@##########",
"##############X..X#########################X........X#####################@@+++o.+++@@####################@@@@@@@@@@@@##########",
"#############X..X.X########################X..XXXX..X#####################@@++oo.o++@@####################@@@@@@@@@@@@##########",
"############X...XX.X#######################X........X#####################@@++oo.o++@@####################@@@@@@@@@@+@##########",
"############X..XXX.X#######################X........X#####################@@@+oooo+@@@####################@@@@@@@@@@+@##########",
"############X..XXX.X#######################X.      .X#####################@@@++o.++@@@#####################@@@@@@@@++###########",
"###########X..XXXXX.X######################X .XXXX. X######################@@++o.++@@######################@@@@@@++++###########",
"###########X..XXXXX.X######################X .XXXX. X######################@@@+o.+@@@######################@@@+++++++###########",
"###########X..XXXXX.X######################X........X######################X@@@o.@@@X######################X..oo.oooX###########",
"###########X........X######################X..XXXX..X######################Xo.oo.oooX######################Xo.oo.oooX###########",
"###########X.      .X######################X..XXXX..X######################X..oo.oooX######################Xo.oo.oooX###########",
"###########X .XXXX. X######################X........X######################Xo.oo.oooX######################X..oo.oooX###########",
"###########X .XXXX. X######################X.      .X######################Xo.oo.oooX######################Xo.oo.oooX###########",
"###########X........X######################X .XXXX. X######################X.oooooooX######################Xo.ooooooX###########",
"###########X..XXXX..X######################X .XXXX. X######################XXXXXXXXXX######################X..ooooooX###########",
"###########X..XXXX..X######################X..XXXXX.X######################Xo.ooooooX######################Xo.ooooooX###########",
"###########X........X######################X..XXXXX.X######################X..ooooooX######################Xo.ooooooX###########",
"###########X.      .X######################X..XXXXX.X######################Xo.ooooooX######################Xo.ooooooX###########",
"###########X .XXXX. X######################.X..XXX.X.######################Xo.ooooooX######################.X.oooooX.###########",
"###########X .XXXX. X######################.X..XXX.X.######################X..ooooooX######################.X.oooooX.###########",
"###########X........X######################OX...XX.XO######################.XXXXXXXX.######################O.XooooX.O###########",
"###########X..XXXX..X#######################.X..X.X.#######################.XooXXooX.######################O.XooooX.O###########",
"###########X........X#######################O.X..X.O#######################..........#######################..XooX..############",
"############XXXXXXXX#########################O.XX.O########################..........#######################O.XooX.O############",
"############........#########################O.XX.O########################O........O#######################O..XX..O############",
"############O......O##########################O..O#########################O........O########################O.XX.O#############",
"#############OOOOOO############################OO###########################OO....OO#########################O.XX.O#############",
"#############################################################################OOOOOO############################..###############"
};
