/* XPM */
static char *character[] = {
/* columns rows colors chars-per-pixel */
"32 32 7 1 ",
"  c #181425",
". c #FEAE34",
"X c #E4A672",
"o c #FEE761",
"O c #466C81",
"+ c #4691BC",
"@ c #EAD4AA",
/* pixels */
"oooooooooooooooooooooooooooooo..",
"oooooooooooooooooooooooooooooo.o",
"ooooooooooooooooooooooooooooo..o",
"ooooooooooooooooooooooooooooo..o",
"oooooooooooooooooooooooooooo...o",
"ooooooooooooooooooooooooooo...oo",
"oooooooooooooooooooooooooo...ooo",
"ooooooooooooooooooooooooo...oooo",
"oooooooooooooooooooooooo...ooooo",
"ooooooooooo          o....oooooo",
"ooooooooooo X@@@@@@@ ....ooooooo",
"ooooooooooo X@@@@@@@ ...oooooooo",
"ooooooooooo X@@@@@@@ .oooooooooo",
"ooooooooooo X@  @@@  ooooooooooo",
"ooooooooooo X@  @@@  ooooooooooo",
"oooooooo... X@@@@@@@ ooooooooooo",
"oooooo..... X@@@@@@@ ooooooooooo",
"oooo....... X@@@@@@@ ooooooooooo",
"ooo.......o ++++++++ ooooooooooo",
"oo......ooo OOOOOOOO ooooooooooo",
"oo.....oooo OOOOOOOO ooooooooooo",
"o....oooooo ++    ++ ooooooooooo",
"o....oooooo + ooo + oooooooooooo",
"o...ooooooo  oooo  ooooooooooooo",
"...ooooooooooooooooooooooooooooo",
"...ooooooooooooooooooooooooooooo",
"..oooooooooooooooooooooooooooooo",
"..oooooooooooooooooooooooooooooo",
".ooooooooooooooooooooooooooooooo",
".oooooooooooooooooooooooooooooo.",
"ooooooooooooooooooooooooooooooo.",
"ooooooooooooooooooooooooooooooo."
};
