/* XPM */
static char *character2[] = {
/* columns rows colors chars-per-pixel */
"32 32 129 2 ",
"   c #000002",
".  c #12000E",
"X  c #14000F",
"o  c #0D0012",
"O  c #07001C",
"+  c #0A001C",
"@  c #1D0027",
"#  c #181425",
"$  c #221531",
"%  c #241731",
"&  c #391831",
"*  c #3A1A32",
"=  c #3A1F34",
"-  c #372531",
";  c #3A2631",
":  c #382532",
">  c #3C2732",
",  c #3C2134",
"<  c #3F2832",
"1  c #42181E",
"2  c #461B29",
"3  c #4D1F2F",
"4  c #551525",
"5  c #4C1F34",
"6  c #561531",
"7  c #5F2D2A",
"8  c #5F2D2E",
"9  c #462436",
"0  c #402832",
"q  c #472C33",
"w  c #482C33",
"e  c #532435",
"r  c #5F2E32",
"t  c #5F2F36",
"y  c #57203A",
"u  c #58223A",
"i  c #5E2E3A",
"p  c #5F2B3C",
"a  c #583337",
"s  c #5F3139",
"d  c #61272C",
"f  c #743F39",
"g  c #7B423A",
"h  c #7F463B",
"j  c #73683F",
"k  c #2C2C43",
"l  c #777343",
"z  c #7C7143",
"x  c #7D7844",
"c  c #4C5360",
"v  c #6C6E76",
"b  c #83453B",
"n  c #89612C",
"m  c #8B622C",
"M  c #8C7F3B",
"N  c #AA6A37",
"B  c #B57337",
"V  c #BB7538",
"C  c #8A7E46",
"Z  c #D68926",
"A  c #D2862A",
"S  c #C88833",
"D  c #CD8B33",
"F  c #CD8B34",
"G  c #D28E34",
"H  c #D68D35",
"J  c #D99035",
"K  c #DA9236",
"L  c #E09535",
"P  c #E59736",
"I  c #EB9F35",
"U  c #F6A230",
"Y  c #FEAE34",
"T  c #999A77",
"R  c #999A7C",
"E  c #A19B65",
"W  c #AE9B7C",
"Q  c #B1A16E",
"!  c #B9AE7F",
"~  c #BFB07E",
"^  c #D49C43",
"/  c #C3AE44",
"(  c #D8A043",
")  c #C9B245",
"_  c #C9B54C",
"`  c #CCB84B",
"'  c #CBB94C",
"]  c #D3BA4B",
"[  c #D7BF4B",
"{  c #CAA553",
"}  c #C8A354",
"|  c #D1BC57",
" . c #D3B879",
".. c #E4A672",
"X. c #D9C259",
"o. c #E9C847",
"O. c #E9C848",
"+. c #EBCB53",
"@. c #E9CA5A",
"#. c #EFD15D",
"$. c #F2D359",
"%. c #F4D45B",
"&. c #FEE85E",
"*. c #E6CC73",
"=. c #FAE360",
"-. c #FBE460",
";. c #FEE761",
":. c #FEEA62",
">. c #FEE966",
",. c #FEEA74",
"<. c #FEEA77",
"1. c #466C81",
"2. c #4691BC",
"3. c #B09E82",
"4. c #A2A399",
"5. c #B2A89D",
"6. c #C0B483",
"7. c #C6B682",
"8. c #CBB988",
"9. c #EAD4AA",
"0. c #F9E4AB",
"q. c #EADBC2",
"w. c #EADFDD",
"e. c #F9ECDC",
"r. c #E0EFE9",
"t. c #E5E9F9",
"y. c #EDEBFA",
"u. c #E8EBFC",
"i. c #EFEEFD",
/* pixels */
";.;.;.;.;.;.;.;.;.;.;.;.;.;.;.;.;.;.;.;.;.;.;.;.;.;.;.;.;.;.Y Y ",
";.;.;.;.;.;.;.;.;.;.;.;.;.;.;.;.;.;.;.;.;.;.;.;.;.;.;.;.;.;.Y ;.",
";.;.;.;.;.;.;.;.&.&.;.;.;.=.z k j =.;.;.&.&.&.&.;.;.;.;.;.Y Y ;.",
";.;.;.;.;.;.;.<.,.>.<.:.:.` v r.c _ :.&.<.<.>.,.;.;.;.;.;.Y Y ;.",
";.;.;.;.;.;.;.e.9.*.q.O.@.#.$.+.%.$.@.O.9.w.*.0.;.;.;.;.Y Y Y ;.",
";.;.;.;.;.;.;.Z 3 r r s t t t t t t t t 8 d 9 A ;.;.;.Y Y Y ;.;.",
";.;.;.;.;.;.;.D % ; ; ; ; ; ; ; ; > ; > ; ; $ S ;.;.Y Y Y ;.;.;.",
";.;.;.;.;.;.;.D % > 0 > 0 > < < ; 0 > 0 < < $ S ;.Y Y Y ;.;.;.;.",
";.;.;.;.;.;.;.G , w - ; ; ; ; ; ; ; ; ; - w = F Y Y Y ;.;.;.;.;.",
";.;.;.;.;.;.;.J p s , # # # # # # # # # # i p H Y Y ;.;.;.;.;.;.",
";.;.;.;.;.;.;.I N B V # ..9.9.9.9.9.9.9.# B N I Y ;.;.;.;.;.;.;.",
";.;.;.;.;.;.;.U J L P # ..9.9.9.9.9.9.9.# L J U ;.;.;.;.;.;.;.;.",
";.;.;.;.;.;.;.( u i 9 # ..9.9.9.9.9.9.9.# i 5 ^ ;.;.;.;.;.;.;.;.",
";.;.;.;.;.;.;.[ e a ; # ..9.# # 9.9.9.# # a u ] ;.;.;.;.;.;.;.;.",
";.;.;.;.;.;.;.6.  O o # ..9.# # 9.9.9.# # +   ! ;.;.;.;.;.;.;.;.",
";.;.;.;.;.;.;.u.R E 4.# ..9.9.9.9.9.9.9.# E T t.;.;.;.;.;.;.;.;.",
";.;.;.;.;.;.Y i.3.Q 5.# ..9.9.9.9.9.9.9.# Q W y.;.;.;.;.;.;.;.;.",
";.;.;.;.Y Y Y 7.X 2 1 # ..9.9.9.9.9.9.9.# 2 . ~ ;.;.;.;.;.;.;.;.",
";.;.;.Y Y Y Y ) & b g # 2.2.2.2.2.2.2.2.# b & / ;.;.;.;.;.;.;.;.",
";.;.Y Y Y Y Y X.@ b f # 1.1.1.1.1.1.1.1.# h @ | ;.;.;.;.;.;.;.;.",
";.;.Y Y Y Y Y l { 4 4 # 1.1.1.1.1.1.1.1.# 4 } x ;.;.;.;.;.;.;.;.",
";.Y Y Y Y ;.;.n E /  .# 2.2.# # # # 2.2.# 8.M n ;.;.;.;.;.;.;.;.",
";.Y Y Y Y ;.;.;.;.;.:.# 2.# ;.;.;.# 2.# ;.;.;.;.;.;.;.;.;.;.;.;.",
";.Y Y Y ;.;.;.;.;.;.&.# # ;.;.;.;.# # ;.;.;.;.;.;.;.;.;.;.;.;.;.",
"Y Y Y ;.;.;.;.;.;.;.;.;.;.;.;.;.;.;.;.;.;.;.;.;.;.;.;.;.;.;.;.;.",
"Y Y Y ;.;.;.;.;.;.;.;.;.;.;.;.;.;.;.;.;.;.;.;.;.;.;.;.;.;.;.;.;.",
"Y Y ;.;.;.;.;.;.;.;.;.;.;.;.;.;.;.;.;.;.;.;.;.;.;.;.;.;.;.;.;.;.",
"Y Y ;.;.;.;.;.;.;.;.;.;.;.;.;.;.;.;.;.;.;.;.;.;.;.;.;.;.;.;.;.;.",
"Y ;.;.;.;.;.;.;.;.;.;.;.;.;.;.;.;.;.;.;.;.;.;.;.;.;.;.;.;.;.;.;.",
"Y ;.;.;.;.;.;.;.;.;.;.;.;.;.;.;.;.;.;.;.;.;.;.;.;.;.;.;.;.;.;.Y ",
";.;.;.;.;.;.;.;.;.;.;.;.;.;.;.;.;.;.;.;.;.;.;.;.;.;.;.;.;.;.;.Y ",
";.;.;.;.;.;.;.;.;.;.;.;.;.;.;.;.;.;.;.;.;.;.;.;.;.;.;.;.;.;.;.Y "
};
