/* XPM */
static char *character[] = {
/* columns rows colors chars-per-pixel */
"32 31 6 1 ",
"  c #181425",
". c #E4A672",
"X c #466C81",
"o c #4691BC",
"O c #EAD4AA",
"+ c None",
/* pixels */
"++++++++++++++++++++++++++++++++",
"++++++++++++++++++++++++++++++++",
"++++++++++++++++++++++++++++++++",
"++++++++++++++++++++++++++++++++",
"++++++++++++++++++++++++++++++++",
"++++++++++++++++++++++++++++++++",
"++++++++++++++++++++++++++++++++",
"++++++++++++++++++++++++++++++++",
"+++++++++++          +++++++++++",
"+++++++++++ .OOOOOOO +++++++++++",
"+++++++++++ .OOOOOOO +++++++++++",
"+++++++++++ .OOOOOOO +++++++++++",
"+++++++++++ .O  OOO  +++++++++++",
"+++++++++++ .O  OOO  +++++++++++",
"+++++++++++ .OOOOOOO +++++++++++",
"+++++++++++ .OOOOOOO +++++++++++",
"+++++++++++ .OOOOOOO +++++++++++",
"+++++++++++ oooooooo +++++++++++",
"+++++++++++ XXXXXXXX +++++++++++",
"+++++++++++ XXXXXXXX +++++++++++",
"+++++++++++ oo    oo +++++++++++",
"+++++++++++ o +++ o ++++++++++++",
"+++++++++++  ++++  +++++++++++++",
"++++++++++++++++++++++++++++++++",
"++++++++++++++++++++++++++++++++",
"++++++++++++++++++++++++++++++++",
"++++++++++++++++++++++++++++++++",
"++++++++++++++++++++++++++++++++",
"++++++++++++++++++++++++++++++++",
"++++++++++++++++++++++++++++++++",
"++++++++++++++++++++++++++++++++"
};
