/* XPM */
static char *chest3[] = {
/* columns rows colors chars-per-pixel */
"32 32 11 1 ",
"  c #181425",
". c #3F2832",
"X c #743F39",
"o c #63C74D",
"O c #FEAE34",
"+ c #FEE761",
"@ c #124E89",
"# c #2CE8F5",
"$ c #8B9BB4",
"% c #C0CBDC",
"& c white",
/* pixels */
"++++++++++++++++++++++++++++++OO",
"++++++++++++++++++++++++++++++O+",
"+++++++++++++++  ++++++++++++OO+",
"++++++++++++++ %$ +++++++++++OO+",
"+++++++&&+&++++++++++&&+&+++OOO+",
"+++++++OXXXXXXXXXXXXXXXXO++OOO++",
"+++++++O................O+OOO+++",
"+++++++O................OOOO++++",
"+++++++O................OOO+++++",
"+++++++OXX............XXOO++++++",
"+++++++OXXXXXXXXXXXXXXXXO+++++++",
"+++++++OOOOOOOOOOOOOOOOOO+++++++",
"+++++++OXXXXXXXXXXXXXXXXO+++++++",
"++++++++XX....&+o&+...XX++++++++",
"++++++++...&&#+++++&O...++++++++",
"+++++++& O@OOO&OOOOOOo  &+++++++",
"++++++O&&+&++++++++++&+&&+++++++",
"++++OOO&................&+++++++",
"+++OOOO+.XXXXXXXXXXXXXX.++++++++",
"++OOOOO+.XXXXXXXXXXXXXX.++++++++",
"++OOOOO+.XXXXXXXXXXXXXX.++++++++",
"+OOOO++ +XXXXXXXXXXXXXX+ +++++++",
"+OOOO++O ++&&&&&&&&&+&+ O+++++++",
"+OOO++++++++++++++++++++++++++++",
"OOO+++++++++++++++++++++++++++++",
"OOO+++++++++++++++++++++++++++++",
"OO++++++++++++++++++++++++++++++",
"OO++++++++++++++++++++++++++++++",
"O+++++++++++++++++++++++++++++++",
"O++++++++++++++++++++++++++++++O",
"+++++++++++++++++++++++++++++++O",
"+++++++++++++++++++++++++++++++O"
};
