/* XPM */
static char *chest2[] = {
/* columns rows colors chars-per-pixel */
"33 32 9 1 ",
"  c #181425",
". c #3F2832",
"X c #743F39",
"o c #FEAE34",
"O c #FEE761",
"+ c #8B9BB4",
"@ c #C0CBDC",
"# c white",
"$ c None",
/* pixels */
"$$$$$$$$$$$$$$$$$$$$$$$$$$$$$$$$$",
"$$$$$$$$$$$$$$$$$$$$$$$$$$$$$$$$$",
"$$$$$$$$$$$$$$$  $$$$$$$$$$$$$$$$",
"$$$$$$$$$$$$$$ @+ $$$$$$$$$$$$$$$",
"$$$$$$$##O#OOOOOOOOOO##O#$$$$$$$$",
"$$$$$$$oXXXXXXXXXXXXXXXXo$$$$$$$$",
"$$$$$$$o................o$$$$$$$$",
"$$$$$$$o................o$$$$$$$$",
"$$$$$$$o................o$$$$$$$$",
"$$$$$$$oXX............XXo$$$$$$$$",
"$$$$$$$oXXXXXXXXXXXXXXXXo$$$$$$$$",
"$$$$$$$oooooooooooooooooo$$$$$$$$",
"$$$$$$$oXXXXXXXXXXXXXXXXo$$$$$$$$",
"$$$$$$$OXX............XXO$$$$$$$$",
"$$$$$$$O.....        ...O$$$$$$$$",
"$$$$$$$#                #$$$$$$$$",
"$$$$$$$##O#OOOOOOOOOO#O##$$$$$$$$",
"$$$$$$$#................#$$$$$$$$",
"$$$$$$$O.XXXXXXXXXXXXXX.O$$$$$$$$",
"$$$$$$$O.XXXXXXXXXXXXXX.O$$$$$$$$",
"$$$$$$$O.XXXXXXXXXXXXXX.O$$$$$$$$",
"$$$$$$$ OXXXXXXXXXXXXXXO $$$$$$$$",
"$$$$$$$o OO#########O#O o$$$$$$$$",
"$$$$$$$$$$$$$$$$$$$$$$$$$$$$$$$$$",
"$$$$$$$$$$$$$$$$$$$$$$$$$$$$$$$$$",
"$$$$$$$$$$$$$$$$$$$$$$$$$$$$$$$$$",
"$$$$$$$$$$$$$$$$$$$$$$$$$$$$$$$$$",
"$$$$$$$$$$$$$$$$$$$$$$$$$$$$$$$$$",
"$$$$$$$$$$$$$$$$$$$$$$$$$$$$$$$$$",
"$$$$$$$$$$$$$$$$$$$$$$$$$$$$$$$$$",
"$$$$$$$$$$$$$$$$$$$$$$$$$$$$$$$$$",
"$$$$$$$$$$$$$$$$$$$$$$$$$$$$$$$$$"
};
