/* XPM */
static char *chest2[] = {
/* columns rows colors chars-per-pixel */
"32 32 154 2 ",
"   c #000001",
".  c #03000F",
"X  c #12000E",
"o  c #14000F",
"O  c #0D0012",
"+  c #000019",
"@  c #00001C",
"#  c #0A001C",
"$  c #020020",
"%  c #0F0228",
"&  c #1D0027",
"*  c #1E0028",
"=  c #231A2A",
"-  c #261C2B",
";  c #211531",
":  c #241731",
">  c #391831",
",  c #3A1A32",
"<  c #3A1F34",
"1  c #2F212F",
"2  c #342330",
"3  c #372531",
"4  c #3A2631",
"5  c #3C2732",
"6  c #3C2134",
"7  c #3F2832",
"8  c #3F2834",
"9  c #42181F",
"0  c #61251E",
"q  c #461B29",
"w  c #431B2F",
"e  c #551525",
"r  c #431B32",
"t  c #4C1F34",
"y  c #561531",
"u  c #5F2D2C",
"i  c #5F2D2E",
"p  c #412435",
"a  c #462436",
"s  c #492537",
"d  c #402832",
"f  c #472C33",
"g  c #482C33",
"h  c #4C2638",
"j  c #4F2839",
"k  c #512135",
"l  c #532435",
"z  c #5F2E32",
"x  c #5F2E35",
"c  c #57203A",
"v  c #58223A",
"b  c #502839",
"n  c #5D2D39",
"m  c #5F2B3C",
"M  c #583337",
"N  c #5F3139",
"B  c #612626",
"V  c #61272C",
"C  c #743F39",
"Z  c #7B423A",
"A  c #7E453B",
"S  c #2C2C43",
"D  c #777343",
"F  c #7C7143",
"G  c #7D7844",
"H  c #4C5360",
"J  c #6C6E76",
"K  c #83453B",
"L  c #89612C",
"P  c #8B622C",
"I  c #8C7F3B",
"U  c #A96A37",
"Y  c #AA6A37",
"T  c #B57337",
"R  c #B67337",
"E  c #BB7538",
"W  c #8A7E46",
"Q  c #A09439",
"!  c #A8983B",
"~  c #D68926",
"^  c #D2862A",
"/  c #C88833",
"(  c #CD8B33",
")  c #CD8B34",
"_  c #D28E34",
"`  c #D68D35",
"'  c #D99035",
"]  c #DA9236",
"[  c #E59736",
"{  c #EB9F35",
"}  c #F6A230",
"|  c #FEAE34",
" . c #A39849",
".. c #A7994A",
"X. c #A89A4A",
"o. c #B29A41",
"O. c #B29C50",
"+. c #999A77",
"@. c #999A7C",
"#. c #A19B65",
"$. c #AE9B7C",
"%. c #B1A16E",
"&. c #B9AE7F",
"*. c #BFB07E",
"=. c #D49C43",
"-. c #C3AE44",
";. c #D8A043",
":. c #C9B245",
">. c #C9B54C",
",. c #CCB84B",
"<. c #D3BA4B",
"1. c #D7BF4B",
"2. c #CAA553",
"3. c #C8A354",
"4. c #D1BC57",
"5. c #D3B670",
"6. c #D3B879",
"7. c #D9C259",
"8. c #E9C848",
"9. c #EBCB53",
"0. c #E9CA5A",
"q. c #EFD15D",
"w. c #F2D359",
"e. c #FEE85E",
"r. c #E6CC73",
"t. c #FAE360",
"y. c #FBE460",
"u. c #FEE761",
"i. c #FEEA62",
"p. c #FEE966",
"a. c #FEE968",
"s. c #FEEA70",
"d. c #FEEA77",
"f. c #B09E82",
"g. c #A4A497",
"h. c #A2A399",
"j. c #B2A89A",
"k. c #B2A89D",
"l. c #C0B483",
"z. c #C6B682",
"x. c #CBB988",
"c. c #D3BD9B",
"v. c #E7D5AC",
"b. c #EAD7AD",
"n. c #F9E4AB",
"m. c #D3C3C1",
"M. c #EADBC2",
"N. c #EADFDD",
"B. c #F9ECDC",
"V. c #E0EFE9",
"C. c #E5E9F9",
"Z. c #EDEBFA",
"A. c #E8EBFC",
"S. c #EFEEFD",
/* pixels */
"u.u.u.u.u.u.u.u.u.u.u.u.u.u.u.u.u.u.u.u.u.u.u.u.u.u.u.u.u.u.| | ",
"u.u.u.u.u.u.u.u.u.u.u.u.u.u.u.u.u.u.u.u.u.u.u.u.u.u.u.u.u.u.| u.",
"u.u.u.u.u.u.u.u.p.u.u.u.u.u.F S D e.u.u.u.u.u.e.u.u.u.u.u.| | u.",
"u.u.u.u.u.u.u.d.p.p.d.e.i.,.J V.H >.i.e.s.d.p.s.u.u.u.u.u.| | u.",
"u.u.u.u.u.u.u.B.v.r.M.8.0.q.w.9.0.0.0.8.b.N.r.n.u.u.u.u.| | | u.",
"u.u.u.u.u.u.u.~ s z z n x x x x x x x x i V s ^ u.u.u.| | | u.u.",
"u.u.u.u.u.u.u.( : 4 4 4 4 4 4 4 7 4 4 5 4 4 ; / u.u.| | | u.u.u.",
"u.u.u.u.u.u.u.( : 7 d d 4 7 7 8 d d d 5 d 7 ; / u.| | | u.u.u.u.",
"u.u.u.u.u.u.u._ 6 g 3 4 4 4 4 4 4 4 4 d 3 f < ) | | | u.u.u.u.u.",
"u.u.u.u.u.u.u.' m N 6 p p 7 p p p p p p 6 n m ` | | u.u.u.u.u.u.",
"u.u.u.u.u.u.u.{ Y R E E E E E E E E E E E T U { | u.u.u.u.u.u.u.",
"u.u.u.u.u.u.u.} ' ' [ [ [ [ [ [ [ [ [ [ [ ' ' } u.u.u.u.u.u.u.u.",
"u.u.u.u.u.u.u.;.v N a s h j j j j j j j s n c =.u.u.u.u.u.u.u.u.",
"u.u.u.u.u.u.u.1.l M 4 d 2 = - - - - - = 1 M k <.u.u.u.u.u.u.u.u.",
"u.u.u.u.u.u.u.l.  # O % $ @ @ @ @ @ @ @ . #   &.u.u.u.u.u.u.u.u.",
"u.u.u.u.u.u.u.A.@.#.h.Q  .X...........! g.#.+.C.u.u.u.u.u.u.u.u.",
"u.u.u.u.u.u.| S.$.%.k.! O.O.O.O.O.O.O.o.j.#.$.A.y.u.u.u.u.u.u.u.",
"u.u.u.u.| | | z.o q q r w w w w r w w r q q o 6.u.u.u.u.u.u.u.u.",
"u.u.u.| | | | :.r K Z Z Z Z C Z Z Z Z Z Z K > -.u.u.u.u.u.u.u.u.",
"u.u.| | | | | 7.& K C C C C C C C C Z Z C A * 4.u.u.u.u.u.u.u.u.",
"u.u.| | | | | D 2.y V 0 B 0 0 0 0 0 0 i u e 3.G u.u.u.u.u.u.u.u.",
"u.| | | | u.u.P W ,.6.m.m.m.m.m.m.m.m.5.c.z.I L u.u.u.u.u.u.u.u.",
"u.| | | | u.u.u.u.u.u.u.u.u.u.u.e.u.u.u.e.u.u.u.u.u.u.u.u.u.u.u.",
"u.| | | u.u.u.u.u.u.u.u.u.u.u.u.y.u.u.u.y.u.u.u.u.u.u.u.u.u.u.u.",
"| | | u.u.u.u.u.u.u.u.u.u.u.u.u.u.u.u.u.u.u.u.u.u.u.u.u.u.u.u.u.",
"| | | u.u.u.u.u.u.u.u.u.u.u.u.u.u.u.u.u.u.u.u.u.u.u.u.u.u.u.u.u.",
"| | u.u.u.u.u.u.u.u.u.u.u.u.u.u.u.u.u.u.u.u.u.u.u.u.u.u.u.u.u.u.",
"| | u.u.u.u.u.u.u.u.u.u.u.u.u.u.u.u.u.u.u.u.u.u.u.u.u.u.u.u.u.u.",
"| u.u.u.u.u.u.u.u.u.u.u.u.u.u.u.u.u.u.u.u.u.u.u.u.u.u.u.u.u.u.u.",
"| u.u.u.u.u.u.u.u.u.u.u.u.u.u.u.u.u.u.u.u.u.u.u.u.u.u.u.u.u.u.| ",
"u.u.u.u.u.u.u.u.u.u.u.u.u.u.u.u.u.u.u.u.u.u.u.u.u.u.u.u.u.u.u.| ",
"u.u.u.u.u.u.u.u.u.u.u.u.u.u.u.u.u.u.u.u.u.u.u.u.u.u.u.u.u.u.u.| "
};
