/* XPM */
static char *Chest[] = {
/* columns rows colors chars-per-pixel */
"96 32 13 1 ",
"  c #181425",
". c #3F2832",
"X c #743F39",
"o c #B86F50",
"O c #63C74D",
"+ c #FEAE34",
"@ c #FEE761",
"# c #124E89",
"$ c #2CE8F5",
"% c #8B9BB4",
"& c #C0CBDC",
"* c white",
"= c None",
/* pixels */
"================================================================================================",
"================================================================================================",
"===============================================  ==============================  ===============",
"============================================== &% ============================ &% ==============",
"=======================================**@*@@@@@@@@@@**@*==============**@*@@@@@@@@@@**@*=======",
"=======================================+XXXXXXXXXXXXXXXX+==============+XXXXXXXXXXXXXXXX+=======",
"=======================================+................+==============+................+=======",
"=======================================+................+==============+................+=======",
"=======*================*==============+................+==============+................+=======",
"=======*oooooooooooooooo*==============+XX............XX+==============+XX............XX+=======",
"=======*.XXXXXXXXXXXXXX.*==============+XXXXXXXXXXXXXXXX+==============+XXXXXXXXXXXXXXXX+=======",
"=======@.XXXXXXXXXXXXXX.@==============++++++++++++++++++==============++++++++++++++++++=======",
"=======*.XXXXXXXXXXXXXX.*==============+XXXXXXXXXXXXXXXX+==============+XXXXXXXXXXXXXXXX+=======",
"=======@..XXXXXXXXXXXX..@==============@XX............XX@==============@XX....*@O*@...XX@=======",
"=======+................+==============@.....        ...@==============@...**$@@@@@*+...@=======",
"=======++++++++  ++++++++==============*                *==============* +#+++*++++++O  *=======",
"=======        **        ==============**@*@@@@@@@@@@*@**==============**@*@@@@@@@@@@*@**=======",
"=======+...... && ......+==============*................*==============*................*=======",
"=======+.XXXXX.  .XXXXX.+==============@.XXXXXXXXXXXXXX.@==============@.XXXXXXXXXXXXXX.@=======",
"=======@.XXXXXX..XXXXXX.@==============@.XXXXXXXXXXXXXX.@==============@.XXXXXXXXXXXXXX.@=======",
"=======@.XXXXXXXXXXXXXX.@==============@.XXXXXXXXXXXXXX.@==============@.XXXXXXXXXXXXXX.@=======",
"======= @XXXXXXXXXXXXXX@ ============== @XXXXXXXXXXXXXX@ ============== @XXXXXXXXXXXXXX@ =======",
"=======+ @@*********@*@ +==============+ @@*********@*@ +==============+ @@*********@*@ +=======",
"================================================================================================",
"================================================================================================",
"================================================================================================",
"================================================================================================",
"================================================================================================",
"================================================================================================",
"================================================================================================",
"================================================================================================",
"================================================================================================"
};
